<svg xmlns="http://www.w3.org/2000/svg" xmlns:xlink="http://www.w3.org/1999/xlink" width="480.15997314453125" height="355" viewBox="0 0 480.15997314453125 355" fill="none">
<g style="mix-blend-mode:multiply">
<rect x="19.12152099609375" y="308" width="205" height="47"   fill="#E5E5E5" >
</rect>
<rect x="71.94134521484375" y="163.9931640625" width="331.613525390625" height="47.25872802734375"   fill="#E5E5E5" >
</rect>
<rect x="5.41387939453125" y="0.55670166015625" width="331.613525390625" height="47.25872802734375"   fill="#E5E5E5" >
</rect>
<path d="M352.385 16.3734L224.544 354.251L180.635 338.878L308.476 1.00001L352.385 16.3734Z"   fill="#E5E5E5" >
</path>
<rect transform="matrix(0.3538820445537567, 0.9352900981903076, -0.94382244348526, 0.3304532766342163, 346.15484619140625, 1.033843994140625)" x="0" y="0" width="361.2819740406364" height="45.63376017655114"   fill="#E5E5E5" >
</rect>
<rect transform="matrix(1, 0, -0.015161850489675999, 0.9998852610588074, 308.85150146484375, 0)" x="0" y="0" width="37" height="48.24883214211113"   fill="#E5E5E5" >
</rect>
<rect transform="matrix(-0.3538820743560791, 0.9352900981903076, -0.9438223838806152, -0.33045318722724915, 180.25152587890625, 16.723175048828125)" x="0" y="0" width="360.7626245124122" height="48.91294868592394"   fill="#E5E5E5" >
</rect>
<path d="M181.267 338.5L175.821 354.5L225.821 354.5L181.762 338.5L181.267 338.5Z" stroke="rgba(229, 229, 229, 1)" stroke-width="1"      fill="#E5E5E5" >
</path>
<path d="M430.921 354L473.421 339L479.421 354L430.921 354Z" stroke="rgba(229, 229, 229, 1)" stroke-width="1"      fill="#E5E5E5" >
</path>
<path d="M9.7215 330.5L0.721497 354.5L31.7215 354.5L9.7215 330.5Z" stroke="rgba(229, 229, 229, 1)" stroke-width="1"      fill="#E5E5E5" >
</path>
</g>
</svg>
