<svg xmlns="http://www.w3.org/2000/svg" xmlns:xlink="http://www.w3.org/1999/xlink" width="148.7109375" height="34.125" viewBox="0 0 148.7109375 34.125" fill="none">
<g >
<path     fill="#000000"  d="M27.7969 5.69531L17.3438 5.69531L17.3438 34.125L10.3125 34.125L10.3125 5.69531L0 5.69531L0 0L27.7969 0L27.7969 5.69531ZM64.2188 19.3359L50.7188 19.3359L50.7188 28.4766L66.5625 28.4766L66.5625 34.125L43.6875 34.125L43.6875 0L66.5156 0L66.5156 5.69531L50.7188 5.69531L50.7188 13.8281L64.2188 13.8281L64.2188 19.3359ZM101.836 27.0938L89.5078 27.0938L87.1641 34.125L79.6875 34.125L92.3906 0L98.9062 0L111.68 34.125L104.203 34.125L101.836 27.0938ZM91.4062 21.3984L99.9375 21.3984L95.6484 8.625L91.4062 21.3984ZM133.781 28.4766L148.711 28.4766L148.711 34.125L126.75 34.125L126.75 0L133.781 0L133.781 28.4766Z">
</path>
</g>
</svg>
